<?xml version="1.0" encoding="utf-8"?>
<!-- Svg Vector Icons : http://www.onlinewebfonts.com/icon -->
<!DOCTYPE svg PUBLIC "-//W3C//DTD SVG 1.1//EN" "http://www.w3.org/Graphics/SVG/1.1/DTD/svg11.dtd">
<svg version="1.1" xmlns="http://www.w3.org/2000/svg" xmlns:xlink="http://www.w3.org/1999/xlink" x="0px" y="0px" viewBox="0 0 1000 1000" enable-background="new 0 0 1000 1000" xml:space="preserve" width="24" height="24">
<metadata> Svg Vector Icons : http://www.onlinewebfonts.com/icon </metadata>
<g><path d="M912.4,10H87.6C44.8,10,10,44.8,10,87.6v824.7c0,42.9,34.8,77.6,77.6,77.6h824.7c42.9,0,77.6-34.8,77.6-77.6V87.6C990,44.8,955.2,10,912.4,10z M777.9,357.3c-3.3,246.7-161,415.7-396.3,426.4c-97.1,4.4-167.4-26.9-228.6-65.8c71.8,11.5,160.7-17.2,208.3-58c-70.3-6.9-111.9-42.7-131.4-100.4c20.3,3.5,41.7,2.6,61-1.6c-63.4-21.3-108.8-60.5-111.1-142.8c17.8,8.1,36.4,15.7,61,17.2c-47.5-27-82.6-125.7-42.4-191c70.5,77.3,155.3,140.4,294.5,148.9c-35-149.4,163.1-230.4,245.9-130c35.1-6.8,63.5-20,90.9-34.5c-11.3,34.7-33,58.9-59.5,78.4c29.1-3.9,54.8-11,76.9-21.9C833.4,310.5,803.5,336,777.9,357.3z"/></g>
</svg>